<svg version="1.1" xmlns="http://www.w3.org/2000/svg" xmlns:xlink="http://www.w3.org/1999/xlink" width="474.47447" height="474.47447" viewBox="0,0,474.47447,474.47447"><defs><radialGradient cx="238.4985" cy="-662.34234" r="237.23723" gradientUnits="userSpaceOnUse" id="color-1"><stop offset="0" stop-color="#ffc500"/><stop offset="1" stop-color="#ffc500" stop-opacity="0"/></radialGradient><radialGradient cx="238.4985" cy="-662.34234" r="197.54385" gradientUnits="userSpaceOnUse" id="color-2"><stop offset="0" stop-color="#ff6f00"/><stop offset="1" stop-color="#ff6f00" stop-opacity="0"/></radialGradient></defs><g transform="translate(-1.26126,899.57958)"><g data-paper-data="{&quot;isPaintingLayer&quot;:true}" fill-rule="nonzero" stroke="none" stroke-width="0" stroke-linecap="butt" stroke-linejoin="miter" stroke-miterlimit="10" stroke-dasharray="" stroke-dashoffset="0" style="mix-blend-mode: normal"><path d="M1.26126,-662.34234c0,-131.02251 106.21472,-237.23723 237.23723,-237.23723c131.02251,0 237.23723,106.21472 237.23723,237.23723c0,131.02251 -106.21472,237.23723 -237.23723,237.23723c-131.02251,0 -237.23723,-106.21472 -237.23723,-237.23723z" fill="url(#color-1)"/><path d="M40.95465,-662.34234c0,-109.10045 88.4434,-197.54385 197.54385,-197.54385c109.10045,0 197.54385,88.4434 197.54385,197.54385c0,109.10045 -88.4434,197.54385 -197.54385,197.54385c-109.10045,0 -197.54385,-88.4434 -197.54385,-197.54385z" fill="url(#color-2)"/><path d="M88.03286,-662.34234c0,-83.09989 67.36577,-150.46564 150.46564,-150.46564c83.09989,0 150.46564,67.36577 150.46564,150.46564c0,83.09989 -67.36577,150.46564 -150.46564,150.46564c-83.09989,0 -150.46564,-67.36577 -150.46564,-150.46564z" fill="#ffffff"/></g></g></svg>